# Blender v2.61 (sub 0) OBJ File: ''
# www.blender.org
mtllib person.mtl
o SketchUp.011_ID76
v 0.503937 3.996017 -1.007874
v 0.503937 3.995281 1.086614
v 0.503937 3.995281 -1.007874
vn 1.000000 -0.000000 0.000000
usemtl material_2
s off
f 1//1 2//1 3//1
o SketchUp.010_ID70
v -0.283465 2.619266 -0.446861
v -0.740157 2.619266 0.458651
v -0.740157 2.619266 -0.446861
v -0.283465 2.619266 0.458651
vn 0.000000 -1.000000 0.000000
usemtl material_2
s off
f 4//2 5//2 6//2
f 5//2 4//2 7//2
o SketchUp.009_ID62
v -0.740157 3.792494 -0.446861
v -0.740157 2.619266 0.458651
v -0.740157 3.792494 0.458651
v -0.740157 2.619266 -0.446861
v -0.283465 3.792494 0.458651
v -0.740157 3.792494 -0.446861
v -0.740157 3.792494 0.458651
v -0.283465 3.792494 -0.446861
v -0.740157 3.792494 -0.446861
v -0.283465 2.619266 -0.446861
v -0.740157 2.619266 -0.446861
v -0.283465 3.792494 -0.446861
v -0.283465 3.792494 0.458651
v -0.740157 2.619266 0.458651
v -0.283465 2.619266 0.458651
v -0.740157 3.792494 0.458651
vn -1.000000 -0.000000 -0.000000
vn -0.000000 1.000000 0.000000
vn 0.000000 0.000000 -1.000000
vn 0.000000 -0.000000 1.000000
usemtl material_4
s off
f 8//3 9//3 10//3
f 9//3 8//3 11//3
f 12//4 13//4 14//4
f 13//4 12//4 15//4
f 16//5 17//5 18//5
f 17//5 16//5 19//5
f 20//6 21//6 22//6
f 21//6 20//6 23//6
o SketchUp.008_ID56
v 0.503937 2.586568 1.362846
v -0.283465 2.586568 1.087255
v -0.283465 2.586568 1.362846
v 0.503937 2.586568 1.087255
v 0.503937 2.586568 1.087255
v 0.503937 2.586568 1.362846
v -0.283465 2.586568 1.087255
v -0.283465 2.586568 1.362846
v -0.283465 3.995281 1.362846
v -0.283465 3.995281 1.087255
v -0.283465 3.995281 1.087255
v -0.283465 3.995281 1.362846
v -0.283465 3.995281 1.362846
v 0.503937 2.586568 1.362846
v -0.283465 2.586568 1.362846
v 0.503937 3.995281 1.362846
v 0.503937 3.995281 1.362846
v -0.283465 3.995281 1.362846
v 0.503937 2.586568 1.362846
v -0.283465 2.586568 1.362846
v 0.503937 3.995281 1.087255
v 0.503937 2.586568 1.087255
v 0.503937 2.586568 1.087255
v 0.503937 3.995281 1.087255
v 0.503937 3.995281 1.087255
v 0.503937 3.995281 1.087255
v 0.503937 3.995281 1.087255
v -0.283465 3.995281 1.087255
v 0.503937 3.995281 1.087255
v -0.283465 3.995281 1.087255
vn 0.000000 -0.707083 -0.707083
vn 0.000000 -0.999969 0.000000
vn -0.577349 -0.577349 -0.577349
vn -0.707083 -0.707083 0.000000
vn -0.707083 0.000000 -0.707083
vn 0.577349 0.577349 0.577349
vn 0.000000 0.707083 0.707083
vn 0.707083 0.000000 0.707083
vn 0.000000 0.999969 0.000000
vn 0.707083 0.707083 0.000000
usemtl material_2
s 1
f 28//7 29//8 30//9
f 31//10 30//9 29//8
f 34//11 30//9 35//3
f 31//10 35//3 30//9
f 40//12 41//13 42//14
f 43//6 42//14 41//13
f 46//1 47//1 42//14
f 40//12 42//14 47//1
f 34//11 49//5 30//9
f 28//7 30//9 49//5
f 40//12 52//15 41//13
f 53//4 41//13 52//15
usemtl material
f 24//15 25//12 26//16
f 25//12 24//15 27//13
f 25//12 32//1 26//16
f 32//1 25//12 33//14
f 36//7 37//11 38//5
f 37//11 36//7 39//9
f 44//3 37//11 39//9
f 37//11 44//3 45//3
f 48//6 25//12 27//13
f 25//12 48//6 33//14
f 50//8 36//7 51//2
f 36//7 50//8 39//9
o SketchUp.007_ID50
v 0.503937 3.609019 -1.007874
v -0.283465 3.609019 -1.086614
v -0.283465 3.609019 -1.007874
v 0.503937 3.609019 -1.086614
usemtl material_2
s 1
f 54//4 55//4 56//4
f 55//4 54//4 57//4
o SketchUp.006_ID44
v -0.299442 4.286619 -0.381730
v -0.067039 4.286619 -0.212319
v -0.299442 4.286619 0.382289
v 0.527569 4.286619 -0.381730
v 0.295166 4.286619 -0.212319
v 0.295166 4.286619 0.212878
v -0.067039 4.286619 0.212878
v 0.527569 4.286619 0.382289
v 0.527569 5.113390 0.382289
v -0.299442 4.286619 0.382289
v 0.527569 4.286619 0.382289
v -0.299442 5.113390 0.382289
v -0.299442 5.113390 -0.381730
v -0.299442 5.113390 0.382289
v 0.527569 5.113390 -0.381730
v 0.527569 4.286619 -0.381730
v 0.527569 5.113390 -0.381730
v -0.299442 5.113390 -0.381730
v 0.527569 5.113390 -0.381730
vn 0.999969 0.000000 0.000000
usemtl material
s off
f 65//2 64//2 63//2
s 1
f 58//9 59//2 60//10
f 59//2 58//9 61//7
f 59//2 61//7 62//2
f 62//2 61//7 63//2
f 60//10 64//2 65//8
f 64//2 60//10 59//2
f 65//8 63//2 61//7
f 66//12 67//6 68//14
f 67//6 66//12 69//13
f 70//11 60//10 71//3
f 70//11 58//9 60//10
f 61//7 58//9 70//11
f 61//7 70//11 72//5
f 73//17 66//12 68//14
f 66//12 73//17 74//1
f 66//12 75//4 69//13
f 75//4 66//12 76//4
o SketchUp.005_ID38
v 0.295166 4.286619 0.212878
v -0.067039 3.995281 0.212878
v 0.295166 3.995281 0.212878
v -0.067039 4.286619 0.212878
v -0.067039 4.286619 0.212878
v 0.295166 4.286619 0.212878
v -0.067039 3.995281 0.212878
v 0.295166 3.995281 0.212878
v 0.295166 3.995281 -0.212319
v 0.295166 4.286619 -0.212319
v 0.295166 4.286619 -0.212319
v 0.295166 3.995281 -0.212319
usemtl material_2
s 1
f 77//14 78//6 79//14
f 78//6 77//14 80//6
f 81//5 82//11 83//5
f 84//11 83//5 82//11
f 85//1 77//14 79//14
f 77//14 85//1 86//1
f 87//3 88//3 82//11
f 84//11 82//11 88//3
o SketchUp.004_ID32
v 0.295166 4.286619 0.212878
v -0.067039 4.286619 -0.212319
v -0.067039 4.286619 0.212878
v 0.295166 4.286619 -0.212319
v -0.067039 4.286619 -0.212319
v 0.295166 3.995281 -0.212319
v -0.067039 3.995281 -0.212319
v 0.295166 4.286619 -0.212319
v -0.067039 3.995281 0.212878
v -0.067039 4.286619 0.212878
usemtl material
s off
f 89//4 90//4 91//4
f 90//4 89//4 92//4
s 1
f 93//11 94//5 95//11
f 94//5 93//11 96//5
f 93//11 97//3 98//3
f 97//3 93//11 95//11
o SketchUp.003_ID24
v 0.503937 1.968504 0.220472
v -0.283465 1.968504 -0.223849
v -0.283465 1.968504 0.220472
v 0.503937 1.968504 -0.223849
v 0.503937 1.968504 1.007874
v -0.283465 1.968504 1.007874
usemtl material
s off
f 99//4 100//4 101//4
f 100//4 99//4 102//4
f 103//4 101//4 104//4
f 103//4 99//4 101//4
o SketchUp.002_ID18
v 0.503937 1.908666 -1.007874
v -0.283465 1.908666 -0.223849
v -0.283465 1.908666 -1.007874
v -0.283465 1.908666 0.220472
v -0.283465 1.908666 1.007874
v 0.503937 1.908666 1.007874
v 0.503937 1.908666 -0.223849
v 0.503937 1.908666 0.220472
v -0.283465 1.968504 -0.223849
v -0.283465 1.968504 0.220472
v -0.283465 1.968504 -1.007874
v 0.503937 1.968504 -1.007874
v -0.283465 3.609019 -1.007874
v 0.503937 3.609019 -1.007874
v -0.283465 3.995281 1.086614
v -0.283465 3.792494 0.458651
v -0.283465 3.616156 1.086614
v -0.283465 3.995281 -1.007874
v -0.283465 3.616156 1.007874
v -0.283465 1.968504 1.007874
v -0.283465 3.792494 -0.446861
v -0.283465 2.619266 -0.446861
v -0.283465 2.619266 0.458651
v -0.283465 3.996017 -1.086614
v -0.283465 3.996017 -1.007874
v -0.283465 3.609019 -1.086614
v -0.283465 3.996017 -1.362205
v -0.283465 3.609019 -1.086614
v -0.283465 2.586568 -1.086614
v -0.283465 2.586568 -1.362205
v 0.503937 3.616156 1.007874
v 0.503937 3.616156 1.086614
v 0.503937 2.586568 -1.362205
v 0.503937 3.996017 -1.362205
v 0.503937 2.586568 -1.086614
v 0.503937 3.609019 -1.086614
v -0.283465 2.586568 -1.086614
v 0.503937 2.586568 -1.086614
v -0.283465 3.609019 -1.086614
v 0.503937 2.586568 -1.362205
v 0.503937 3.996017 -1.086614
v 0.503937 3.996017 -1.362205
vn 0.000000 0.000000 0.000000
vn -0.447188 -0.894406 0.000000
vn 0.253639 0.960692 -0.112644
vn -0.447188 0.000000 -0.894406
vn -0.948668 -0.316202 0.000000
vn 0.894406 0.000000 0.447188
usemtl material_2
s off
f 110//18 111//18 112//18
f 120//3 119//3 122//3
f 120//3 122//3 125//3
f 125//3 122//3 126//3
f 124//3 127//3 114//3
f 127//3 124//3 120//3
f 114//3 127//3 126//3
f 114//3 126//3 113//3
f 128//3 122//3 129//3
f 145//1 144//1 146//1
s 1
f 105//7 106//19 107//7
f 106//19 105//7 108//19
f 108//19 105//7 109//2
f 109//2 105//7 110//2
f 110//2 105//7 111//20
f 113//3 108//19 114//3
f 108//19 113//3 106//19
f 115//21 105//7 107//7
f 105//7 115//21 116//5
f 116//5 115//21 117//11
f 116//5 117//11 118//5
f 119//3 120//3 121//10
f 121//10 120//3 123//22
f 123//22 120//3 124//3
f 113//3 126//3 115//21
f 115//21 126//3 122//3
f 115//21 122//3 117//11
f 122//3 128//3 117//11
f 117//11 128//3 130//3
f 131//11 132//3 128//3
f 132//3 131//11 133//10
f 133//10 131//11 134//9
f 135//2 121//10 123//22
f 121//10 135//2 136//2
f 131//11 137//7 134//9
f 137//7 131//11 138//5
f 137//7 133//10 134//9
f 133//10 137//7 139//2
f 140//23 141//6 142//14
f 141//6 140//23 143//6
f 144//1 140//23 142//14
f 140//23 144//1 145//1
o SketchUp.001_ID10
v -0.283465 3.995281 1.086614
v -0.067039 3.995281 0.212878
v -0.283465 3.995281 -1.007874
v 0.503937 3.995281 1.086614
v 0.295166 3.995281 0.212878
v 0.295166 3.995281 -0.212319
v -0.067039 3.995281 -0.212319
v 0.503937 3.995281 -1.007874
v 0.503937 3.995281 1.086614
v 0.295166 3.995281 -0.212319
v 0.503937 3.995281 -1.007874
v -0.067039 3.995281 -0.212319
v -0.067039 3.995281 0.212878
v -0.283465 3.995281 -1.007874
v 0.295166 3.995281 0.212878
v -0.283465 3.995281 1.086614
v 0.503937 1.968504 0.220472
v 0.503937 3.616156 1.007874
v 0.503937 1.968504 1.007874
v 0.503937 3.616156 1.086614
v 0.503937 3.995281 -1.007874
v 0.503937 1.968504 -0.223849
v 0.503937 1.968504 -1.007874
v 0.503937 3.609019 -1.007874
v 0.503937 3.609019 -1.086614
v 0.503937 3.996017 -1.007874
v 0.503937 3.996017 -1.086614
v 0.503937 3.996017 -1.086614
v 0.503937 3.609019 -1.086614
v 0.503937 3.996017 -1.007874
v 0.503937 3.995281 -1.007874
v 0.503937 3.609019 -1.007874
v 0.503937 1.968504 -1.007874
v 0.503937 1.968504 -0.223849
v 0.503937 1.968504 0.220472
v 0.503937 3.616156 1.007874
v 0.503937 3.616156 1.086614
v 0.503937 1.968504 1.007874
v 0.503937 3.996017 -1.007874
v -0.283465 3.996017 -1.007874
v -0.283465 3.996017 -1.007874
v 0.503937 3.996017 -1.007874
v -0.283465 3.616156 1.086614
v -0.283465 3.616156 1.086614
v 0.503937 3.996017 -1.362205
v -0.283465 3.996017 -1.086614
v -0.283465 3.996017 -1.362205
v 0.503937 3.996017 -1.086614
v 0.503937 3.996017 -1.086614
v 0.503937 3.996017 -1.362205
v -0.283465 3.996017 -1.086614
v -0.283465 3.996017 -1.362205
v -0.283465 1.968504 1.007874
v -0.283465 3.616156 1.007874
v -0.283465 3.616156 1.007874
v -0.283465 1.968504 1.007874
vn 0.000000 0.707083 0.707114
vn 0.000000 -0.707083 -0.707114
vn 0.948668 0.000000 0.316202
vn -0.999969 0.000000 0.000000
vn -0.948668 0.000000 -0.316202
vn 0.120792 0.957884 -0.260445
usemtl material_2
s off
f 167//1 163//1 168//1
f 167//1 168//1 169//1
f 167//18 169//18 170//18
f 167//1 170//1 171//1
f 167//1 171//1 172//1
f 172//1 171//1 173//1
f 174//3 175//3 176//3
f 176//3 175//3 177//3
f 175//3 178//3 177//3
f 178//18 179//18 177//18
f 179//3 180//3 177//3
f 180//3 181//3 177//3
f 191//2 192//2 193//2
f 198//4 197//4 196//4
s 1
f 147//13 148//4 149//24
f 148//4 147//13 150//12
f 148//4 150//12 151//4
f 151//4 150//12 152//4
f 149//24 153//4 154//13
f 153//4 149//24 148//4
f 154//13 153//4 152//4
f 154//13 152//4 150//12
f 155//9 156//2 157//7
f 156//2 158//2 157//7
f 159//2 160//25 158//2
f 157//7 158//2 160//25
f 156//2 155//9 161//2
f 161//2 155//9 159//2
f 155//9 162//7 159//2
f 160//25 159//2 162//7
f 163//17 164//26 165//14
f 164//26 150//12 166//14
f 150//12 164//26 167//1
f 167//1 164//26 163//17
f 181//27 182//28 177//3
f 177//3 182//28 155//9
f 183//11 155//9 182//28
f 184//11 182//28 181//27
f 185//24 149//24 154//13
f 149//24 185//24 186//13
f 187//7 188//25 160//25
f 157//7 160//25 188//25
f 150//12 189//6 166//14
f 150//12 147//13 189//6
f 162//7 155//9 190//5
f 183//11 190//5 155//9
f 192//2 191//2 187//7
f 187//7 191//2 188//25
f 188//25 191//2 194//29
f 195//29 196//15 185//24
f 185//24 196//15 186//13
f 186//13 196//15 197//4
f 164//26 199//6 165//14
f 199//6 164//26 200//6
f 201//5 182//28 202//5
f 184//11 202//5 182//28
o SketchUp_ID2
v 0.503937 0.000000 0.220472
v -0.283465 0.000000 1.007874
v -0.283465 0.000000 0.220472
v 0.503937 0.000000 1.007874
v 0.503937 1.908666 1.007874
v -0.283465 0.000000 1.007874
v 0.503937 0.000000 1.007874
v -0.283465 1.908666 1.007874
v -0.283465 1.908666 0.220472
v -0.283465 1.908666 1.007874
v 0.503937 1.908666 0.220472
v -0.283465 1.968504 0.220472
v 0.503937 1.968504 0.220472
v 0.503937 0.000000 0.220472
v 0.503937 1.908666 0.220472
v 0.503937 1.968504 1.007874
v 0.503937 1.908666 1.007874
v -0.283465 1.968504 1.007874
v -0.283465 1.968504 0.220472
v -0.283465 1.968504 1.007874
v -0.283465 1.908666 0.220472
v 0.503937 1.968504 0.220472
v 0.503937 1.908666 -0.223849
v 0.503937 1.968504 -0.223849
v 0.503937 1.908666 -1.007874
v 0.503937 1.968504 -1.007874
v 0.503937 1.908666 -0.223849
v -0.283465 0.000000 -0.223849
v 0.503937 0.000000 -0.223849
v -0.283465 1.908666 -0.223849
v 0.503937 1.968504 -0.223849
v -0.283465 1.968504 -0.223849
v 0.503937 0.000000 -1.011251
v 0.503937 1.968504 -1.007874
v 0.503937 1.968504 -1.011251
v 0.503937 1.968504 -0.223849
v -0.283465 1.968504 -1.007874
v -0.283465 1.968504 -0.223849
v -0.283465 1.968504 -1.011251
v 0.503937 0.000000 -1.011251
v -0.283465 0.000000 -0.223849
v -0.283465 0.000000 -1.011251
v 0.503937 0.000000 -0.223849
v -0.283465 1.968504 -1.007874
v -0.283465 1.908666 -0.223849
v -0.283465 1.968504 -0.223849
v -0.283465 1.908666 -1.007874
v -0.283465 1.968504 -1.011251
v 0.503937 1.968504 -1.011251
vn 0.447188 0.000000 0.894406
vn -0.577319 -0.577349 -0.577349
usemtl material_3
s off
f 213//5 214//5 215//5
f 221//3 212//3 222//3
f 212//3 221//3 223//3
f 225//1 224//1 217//1
f 224//1 225//1 226//1
f 227//1 226//1 225//1
f 226//1 227//1 228//1
f 232//6 233//6 234//6
f 238//4 239//4 240//4
f 239//4 238//4 241//4
f 246//3 247//3 248//3
f 247//3 246//3 249//3
s 1
f 203//7 204//10 205//9
f 204//10 203//7 206//2
f 207//14 208//6 209//14
f 208//6 207//14 210//6
f 211//21 204//10 212//3
f 204//10 211//21 205//9
f 211//21 203//7 205//9
f 203//7 211//21 213//5
f 213//5 211//21 214//5
f 216//1 207//14 209//14
f 207//14 216//1 217//1
f 218//14 210//6 219//14
f 210//6 218//14 220//6
f 217//1 218//14 219//14
f 218//14 217//1 224//17
f 229//30 230//6 231//14
f 230//6 229//30 232//6
f 232//6 229//30 233//6
f 235//1 229//30 231//14
f 229//30 235//1 227//17
f 227//17 235//1 236//1
f 236//1 235//1 237//16
f 241//4 238//4 237//16
f 237//16 238//4 236//1
f 242//7 243//10 244//31
f 243//10 242//7 245//2
f 250//11 249//3 246//3
f 249//3 243//10 247//3
f 243//10 249//3 244//31
f 244//31 249//3 250//11
f 250//11 242//7 244//31
f 242//7 250//11 251//5
